<svg width="27" height="17" viewBox="0 0 27 17" fill="none" xmlns="http://www.w3.org/2000/svg">
<path id="arrow_up-[#340]" d="M26.277 3.65063C26.3548 3.57592 26.3992 3.47292 26.4 3.36503C26.4008 3.25714 26.358 3.15349 26.2812 3.07763L24.5245 1.34057C24.3704 1.18811 24.1228 1.18626 23.9663 1.33641L13.4836 11.3972L12.6321 10.5802C12.628 10.5759 12.6237 10.5716 12.6193 10.5674L3.06018 1.39197C2.90539 1.24339 2.66094 1.2434 2.50616 1.392L0.722973 3.10404C0.644403 3.17947 0.599993 3.28368 0.6 3.3926C0.600006 3.50152 0.644428 3.60573 0.723007 3.68115L13.2066 15.6636C13.3614 15.8121 13.6057 15.8121 13.7605 15.6637C13.9902 15.4434 14.163 15.2776 14.3142 15.1326C15.3693 14.1207 15.3703 14.1197 26.277 3.65063Z" fill="#3B3B3B" stroke="#3B3B3B" stroke-width="0.8" stroke-linejoin="round"/>
</svg>
