<svg width="19" height="21" viewBox="0 0 19 21" fill="none" xmlns="http://www.w3.org/2000/svg">
<g id="Group 1">
<path id="Vector" d="M1.40002 8.7C1.40002 5.30588 1.40002 3.60883 2.45444 2.55441C3.50886 1.5 5.20591 1.5 8.60002 1.5H10.4C13.7941 1.5 15.4912 1.5 16.5456 2.55441C17.6 3.60883 17.6 5.30588 17.6 8.7V12.3C17.6 15.6941 17.6 17.3912 16.5456 18.4456C15.4912 19.5 13.7941 19.5 10.4 19.5H8.60002C5.20591 19.5 3.50886 19.5 2.45444 18.4456C1.40002 17.3912 1.40002 15.6941 1.40002 12.3V8.7Z" stroke="white" stroke-width="1.4"/>
<path id="Vector_2" d="M5.90002 8.7H13.1" stroke="white" stroke-width="1.4" stroke-linecap="round"/>
<path id="Vector_3" d="M5.90002 12.3H10.4" stroke="white" stroke-width="1.4" stroke-linecap="round"/>
</g>
</svg>
