<svg width="28" height="30" viewBox="0 0 28 30" fill="none" xmlns="http://www.w3.org/2000/svg">
<path id="Vector" fill-rule="evenodd" clip-rule="evenodd" d="M1.76365 1.75736C-1.79455e-07 3.51472 0 6.34314 0 12V18C0 23.6568 -1.79455e-07 26.4853 1.76365 28.2426C3.52732 30 6.36587 30 12.043 30H15.0538C20.7308 30 23.5695 30 25.3331 28.2426C27.0968 26.4853 27.0968 23.6568 27.0968 18V12C27.0968 6.34314 27.0968 3.51472 25.3331 1.75736C23.5695 1.78814e-07 20.7308 0 15.0538 0H12.043C6.36587 0 3.52732 1.78814e-07 1.76365 1.75736ZM6.39785 9C6.39785 8.37868 6.90334 7.875 7.52688 7.875H19.5699C20.1934 7.875 20.6989 8.37868 20.6989 9C20.6989 9.62132 20.1934 10.125 19.5699 10.125H7.52688C6.90334 10.125 6.39785 9.62132 6.39785 9ZM6.39785 15C6.39785 14.3787 6.90334 13.875 7.52688 13.875H19.5699C20.1934 13.875 20.6989 14.3787 20.6989 15C20.6989 15.6213 20.1934 16.125 19.5699 16.125H7.52688C6.90334 16.125 6.39785 15.6213 6.39785 15ZM7.52688 19.875C6.90334 19.875 6.39785 20.3787 6.39785 21C6.39785 21.6213 6.90334 22.125 7.52688 22.125H15.0538C15.6773 22.125 16.1828 21.6213 16.1828 21C16.1828 20.3787 15.6773 19.875 15.0538 19.875H7.52688Z" fill="#1066F6" fill-opacity="0.5"/>
</svg>
