<svg width="20" height="15" viewBox="0 0 20 15" fill="none" xmlns="http://www.w3.org/2000/svg">
<path id="rect868" d="M2.75576 0.416016C1.24301 0.416016 0 1.65902 0 3.17177V11.8281C0 13.3408 1.24301 14.5838 2.75576 14.5838H17.2442C18.757 14.5838 20 13.3408 20 11.8281V3.17177C20 1.65902 18.757 0.416016 17.2442 0.416016H2.75576ZM3.95215 3.74962C4.16481 3.74561 4.37095 3.82306 4.52836 3.96611L8.55213 7.60084C9.33663 8.31003 10.6715 8.31003 11.456 7.60084L15.4782 3.96611C15.6366 3.82287 15.8441 3.74595 16.0576 3.75125C16.1716 3.75373 16.2839 3.77956 16.3874 3.82716C16.491 3.87476 16.5838 3.9431 16.6599 4.02796C16.8067 4.19207 16.8826 4.40762 16.871 4.62752C16.8595 4.84742 16.7613 5.05379 16.598 5.20156L14.1532 7.41203L14.6171 7.87268L16.629 9.88456C16.7066 9.96198 16.7682 10.0539 16.8102 10.1552C16.8522 10.2564 16.8738 10.365 16.8738 10.4746C16.8738 10.5842 16.8522 10.6928 16.8102 10.794C16.7682 10.8953 16.7066 10.9872 16.629 11.0647C16.5515 11.1425 16.4595 11.2043 16.3581 11.2465C16.2567 11.2886 16.1479 11.3103 16.0381 11.3103C15.9283 11.3103 15.8195 11.2886 15.7181 11.2465C15.6167 11.2043 15.5247 11.1425 15.4472 11.0647L13.437 9.05278L12.9161 8.52866L12.5743 8.83792C11.1295 10.1439 8.87703 10.1439 7.43225 8.83792L7.09206 8.53028L6.57118 9.05278L4.5593 11.0647C4.48185 11.1425 4.38978 11.2043 4.28838 11.2465C4.18698 11.2886 4.07824 11.3103 3.96843 11.3103C3.85861 11.3103 3.74988 11.2886 3.64847 11.2465C3.54707 11.2043 3.455 11.1425 3.37756 11.0647C3.29994 10.9872 3.23837 10.8953 3.19635 10.794C3.15434 10.6928 3.13271 10.5842 3.13271 10.4746C3.13271 10.365 3.15434 10.2564 3.19635 10.1552C3.23837 10.0539 3.29994 9.96198 3.37756 9.88456L5.38945 7.87268L5.85335 7.41203L3.40848 5.20156C3.24522 5.05379 3.14708 4.84742 3.13549 4.62752C3.1239 4.40762 3.19982 4.19207 3.34665 4.02796C3.423 3.94241 3.51618 3.87353 3.62037 3.82563C3.72456 3.77774 3.8375 3.75186 3.95215 3.74962Z" fill="#3B3B3B" fill-opacity="0.2"/>
</svg>
