<svg width="33" height="33" viewBox="0 0 33 33" fill="none" xmlns="http://www.w3.org/2000/svg">
<g id="Vector">
<path d="M21.0109 22.0554L20.2728 22.8323C20.2728 22.8323 18.5187 24.6791 13.7309 19.6383C8.94307 14.5976 10.6971 12.7509 10.6971 12.7509L11.1618 12.2616C12.3067 11.0564 12.4146 9.12137 11.4158 7.70872L9.37267 4.81901C8.13645 3.07058 5.74767 2.83961 4.33074 4.33136L1.7876 7.00883C1.08502 7.74851 0.614208 8.70736 0.671306 9.77104C0.817371 12.4923 1.98018 18.3471 8.46873 25.1785C15.3495 32.4226 21.8057 32.7105 24.446 32.45C25.281 32.3675 26.0072 31.9173 26.5925 31.3011L28.8942 28.8778C30.4479 27.2422 30.0097 24.438 28.0219 23.2938L24.9264 21.512C23.6211 20.7607 22.031 20.9813 21.0109 22.0554Z" fill="#1066F6"/>
<path d="M17.2896 1.53025C17.3969 0.867749 18.0231 0.418339 18.6856 0.525584C18.7266 0.533442 18.8587 0.558102 18.9277 0.573494C19.0661 0.604295 19.2589 0.651688 19.4993 0.721731C19.9802 0.861786 20.652 1.09253 21.4582 1.46215C23.0725 2.20222 25.2206 3.4968 27.4497 5.72595C29.6789 7.95509 30.9735 10.1032 31.7134 11.7175C32.0832 12.5237 32.3139 13.1955 32.4539 13.6764C32.5239 13.9168 32.5714 14.1097 32.6021 14.2479C32.6175 14.3171 32.6289 14.3726 32.6367 14.4136L32.6461 14.4641C32.7532 15.1266 32.3079 15.7789 31.6454 15.8861C30.9848 15.9931 30.3625 15.5457 30.2526 14.8864C30.2492 14.8686 30.2398 14.8211 30.2299 14.7763C30.2098 14.6865 30.1753 14.5442 30.1206 14.356C30.0109 13.9796 29.8205 13.42 29.5042 12.7303C28.8726 11.3526 27.7368 9.45015 25.7311 7.44449C23.7256 5.43884 21.8231 4.30306 20.4454 3.67144C19.7556 3.35523 19.1962 3.1648 18.8196 3.05514C18.6315 3.00033 18.395 2.94603 18.3052 2.92605C17.6457 2.81615 17.1827 2.19086 17.2896 1.53025Z" fill="#1066F6"/>
<path fill-rule="evenodd" clip-rule="evenodd" d="M17.6561 7.11927C17.8405 6.47396 18.5131 6.10029 19.1584 6.28466L18.8246 7.45311C19.1584 6.28466 19.1584 6.28466 19.1584 6.28466L19.1608 6.28534L19.1686 6.28763L19.1813 6.29139L19.2133 6.30137C19.2376 6.30918 19.2683 6.31935 19.3046 6.33227C19.3773 6.35809 19.4736 6.39481 19.5915 6.44536C19.8276 6.54653 20.15 6.70275 20.5463 6.93722C21.3393 7.40657 22.4219 8.18621 23.6938 9.45806C24.9657 10.7299 25.7452 11.8125 26.2146 12.6056C26.4491 13.0018 26.6053 13.3243 26.7065 13.5604C26.7571 13.6783 26.7939 13.7745 26.8196 13.8473C26.8326 13.8836 26.8426 13.9141 26.8506 13.9386L26.8605 13.9706L26.8642 13.9832L26.8658 13.9886L26.8664 13.9911C26.8664 13.9911 26.8673 13.9934 25.6987 14.3273L26.8673 13.9934C27.0516 14.6387 26.6779 15.3113 26.0327 15.4957C25.3928 15.6784 24.7261 15.3127 24.5351 14.6775L24.5291 14.66C24.5205 14.6357 24.5027 14.5877 24.4727 14.5177C24.4127 14.3778 24.304 14.149 24.1232 13.8435C23.7619 13.233 23.1094 12.3107 21.9752 11.1766C20.8412 10.0425 19.9188 9.39002 19.3085 9.02876C19.0029 8.8479 18.7741 8.73918 18.6341 8.67924C18.5641 8.64924 18.5161 8.63136 18.4918 8.62272L18.4743 8.61674C17.8392 8.42575 17.4734 7.75909 17.6561 7.11927Z" fill="#1066F6"/>
</g>
</svg>
