<svg width="20" height="21" viewBox="0 0 20 21" fill="none" xmlns="http://www.w3.org/2000/svg">
<path id="Vector" d="M7.54702 2.14522L8.35827 3.59888C9.0904 4.91074 8.79652 6.63166 7.6434 7.78477C7.6434 7.78477 6.24487 9.18352 8.78065 11.7194C11.3157 14.2544 12.7153 12.8567 12.7153 12.8567C13.8684 11.7035 15.5893 11.4097 16.9012 12.1418L18.3548 12.953C20.3358 14.0585 20.5697 16.8365 18.8285 18.5778C17.7823 19.624 16.5005 20.4382 15.0837 20.4918C12.6985 20.5823 8.6479 19.9787 4.58464 15.9154C0.521416 11.8522 -0.0822351 7.80154 0.00819011 5.41637C0.0619027 3.99951 0.876005 2.71779 1.92227 1.67154C3.66346 -0.0696511 6.44148 0.1643 7.54702 2.14522Z" fill="#3B3B3B" fill-opacity="0.2"/>
</svg>
