<svg width="16" height="21" viewBox="0 0 16 21" fill="none" xmlns="http://www.w3.org/2000/svg">
<path id="Vector" fill-rule="evenodd" clip-rule="evenodd" d="M7.45765 20.3987C7.45788 20.3988 7.45804 20.3989 7.77788 19.9447L7.45765 20.3987ZM8.09811 20.3987L8.10011 20.3973L8.10516 20.3937L8.12283 20.381C8.138 20.3702 8.15983 20.3544 8.18783 20.3338C8.24383 20.2927 8.32467 20.2324 8.42684 20.1539C8.63106 19.9968 8.92073 19.7666 9.2674 19.4702C9.95997 18.878 10.8839 18.0185 11.8093 16.9479C13.6468 14.8224 15.5558 11.7888 15.5558 8.3206C15.5558 6.24752 14.7371 4.25866 13.2788 2.79175C11.8204 1.32476 9.84174 0.5 7.77788 0.5C5.71402 0.5 3.73533 1.32476 2.27692 2.79175C0.818678 4.25866 0 6.24752 0 8.3206C0 11.7888 1.90897 14.8224 3.74644 16.9479C4.67184 18.0185 5.5958 18.878 6.28836 19.4702C6.63503 19.7666 6.9247 19.9968 7.12893 20.1539C7.2311 20.2324 7.31193 20.2927 7.36793 20.3338C7.39593 20.3544 7.41777 20.3702 7.43293 20.381L7.4506 20.3937L7.45566 20.3973L7.45765 20.3987C7.64949 20.5338 7.90627 20.5338 8.09811 20.3987ZM7.77788 19.9447L8.09811 20.3987C8.09789 20.3988 8.09772 20.3989 7.77788 19.9447ZM10.5557 8.27788C10.5557 9.81201 9.31201 11.0557 7.77788 11.0557C6.24375 11.0557 5.00007 9.81201 5.00007 8.27788C5.00007 6.74375 6.24375 5.50007 7.77788 5.50007C9.31201 5.50007 10.5557 6.74375 10.5557 8.27788Z" fill="#3B3B3B" fill-opacity="0.2"/>
</svg>
