<svg width="10" height="13" viewBox="0 0 10 13" fill="none" xmlns="http://www.w3.org/2000/svg">
<path id="Vector" fill-rule="evenodd" clip-rule="evenodd" d="M4.47459 12.4392C4.47473 12.4393 4.47483 12.4394 4.66673 12.1668L4.47459 12.4392ZM4.85887 12.4392L4.86007 12.4384L4.8631 12.4362L4.8737 12.4286C4.8828 12.4221 4.8959 12.4126 4.9127 12.4003C4.9463 12.3756 4.9948 12.3394 5.0561 12.2923C5.17864 12.1981 5.35244 12.06 5.56044 11.8821C5.97598 11.5268 6.53036 11.0111 7.0856 10.3688C8.18808 9.09341 9.33346 7.27326 9.33346 5.19236C9.33346 3.94851 8.84226 2.7552 7.96731 1.87505C7.09226 0.994853 5.90505 0.5 4.66673 0.5C3.42841 0.5 2.2412 0.994853 1.36615 1.87505C0.491207 2.7552 0 3.94851 0 5.19236C0 7.27326 1.14538 9.09341 2.24786 10.3688C2.80311 11.0111 3.35748 11.5268 3.77302 11.8821C3.98102 12.06 4.15482 12.1981 4.27736 12.2923C4.33866 12.3394 4.38716 12.3756 4.42076 12.4003C4.43756 12.4126 4.45066 12.4221 4.45976 12.4286L4.47036 12.4362L4.47339 12.4384L4.47459 12.4392C4.5897 12.5203 4.74377 12.5203 4.85887 12.4392ZM4.66673 12.1668L4.85887 12.4392C4.85873 12.4393 4.85863 12.4394 4.66673 12.1668ZM6.33342 5.16673C6.33342 6.08721 5.58721 6.83342 4.66673 6.83342C3.74625 6.83342 3.00004 6.08721 3.00004 5.16673C3.00004 4.24625 3.74625 3.50004 4.66673 3.50004C5.58721 3.50004 6.33342 4.24625 6.33342 5.16673Z" fill="#3B3B3B"/>
</svg>
