<svg width="26" height="26" viewBox="0 0 26 26" fill="none" xmlns="http://www.w3.org/2000/svg">
<path d="M2.3003 0H2.97544C3.62777 0.118596 4.25454 0.331391 4.83154 0.630159C11.193 3.92231 17.5544 7.2138 23.9159 10.5046C24.3803 10.743 24.809 11.0341 25.1914 11.3706C26.2184 12.2841 26.2602 13.4652 25.3563 14.4719C24.9492 14.8944 24.4585 15.2452 23.9093 15.5063C17.5537 18.7918 11.1966 22.074 4.83813 25.353C4.37454 25.591 3.87949 25.7754 3.36469 25.9019C1.98802 26.2427 0.804869 25.678 0.285867 24.4791C0.0731821 23.9247 -0.0222972 23.3392 0.00437419 22.7531C0.00437419 16.2454 0.00437419 9.7384 0.00437419 3.23204C0.00144956 2.96732 0.0154006 2.70267 0.0461583 2.43939C0.138523 1.726 0.380431 1.07206 0.972006 0.554857C1.34931 0.262784 1.80911 0.0707146 2.3003 0Z" fill="white"/>
</svg>
