<svg width="283" height="282" viewBox="0 0 283 282" fill="none" xmlns="http://www.w3.org/2000/svg">
<path d="M0.010252 134.202C0.215287 131.908 0.415196 129.604 0.630483 127.315C1.86165 113.821 5.10798 100.587 10.262 88.0493C21.1972 61.5216 38.5689 40.1952 62.3769 24.0701C76.7737 14.3177 92.8825 7.3518 109.863 3.53566C118.443 1.59658 127.183 0.447254 135.974 0.102185C136.333 0.102185 136.697 0.102185 137.087 0.102185C137.087 0.807275 137.087 1.4204 137.087 2.03352C136.989 7.42898 136.953 12.8244 136.769 18.2148C136.574 23.8964 136.301 29.5746 135.949 35.2494C135.646 40.0777 135.293 44.906 134.78 49.7139C133.314 63.3916 131.012 76.8905 125.379 89.5668C117.419 107.485 104.061 119.712 85.7458 126.681C78.2622 129.497 70.4935 131.493 62.5768 132.633C56.2207 133.568 49.8441 134.427 43.4521 134.994C36.7885 135.587 30.0889 135.888 23.3997 136.154C15.9723 136.445 8.53459 136.547 1.10206 136.736C0.733001 136.736 0.369064 136.798 0.005126 136.833L0.010252 134.202Z" fill="#1066F6"/>
<path d="M0.010252 145.218C1.47625 145.279 2.94738 145.366 4.41851 145.402C11.3692 145.581 18.3302 145.611 25.2809 145.913C32.5135 146.255 39.741 146.786 46.9633 147.394C57.5842 148.288 68.0871 149.923 78.344 152.887C87.2271 155.442 95.5977 159.12 103.092 164.592C114.333 172.803 122.15 183.579 127.055 196.521C129.9 204.037 131.73 211.808 133.073 219.712C134.479 227.99 135.405 236.343 135.846 244.727C136.415 255.564 136.651 266.427 137.035 277.274C137.092 278.848 137.163 280.426 137.23 282H134.575C134.146 281.916 133.713 281.854 133.278 281.816C125.485 281.405 117.743 280.328 110.135 278.597C93.0433 274.791 76.8286 267.796 62.3461 257.981C38.5586 241.856 21.1972 220.529 10.262 194.002C5.0912 181.433 1.83777 168.163 0.60998 154.634C0.398111 152.376 0.194784 150.118 0 147.859L0.010252 145.218Z" fill="#1066F6"/>
<path d="M145.626 282C145.77 276.605 145.837 271.214 146.072 265.824C146.441 257.322 146.831 248.825 147.374 240.333C147.972 230.312 149.384 220.355 151.598 210.561C154.161 199.372 158.128 188.76 164.966 179.394C172.578 168.961 182.466 161.414 194.373 156.448C201.902 153.358 209.762 151.14 217.799 149.837C222.643 149.014 227.507 148.273 232.387 147.711C237.062 147.17 241.757 146.837 246.452 146.536C251.739 146.195 257.036 145.931 262.343 145.744C267.981 145.55 273.62 145.494 279.258 145.386C280.396 145.386 281.534 145.386 282.728 145.386C282.728 146.005 282.728 146.653 282.728 147.292C281.298 177.437 271.318 204.517 252.583 228.209C233.72 252.069 209.526 268.189 180.236 276.676C170.189 279.572 159.839 281.297 149.394 281.816C149.032 281.856 148.673 281.915 148.317 281.995L145.626 282Z" fill="#1066F6"/>
<path d="M283 136.864C273.907 136.578 265.152 136.353 256.397 136.006C250.958 135.791 245.514 135.536 240.096 135.04C234.104 134.493 228.127 133.717 222.156 132.909C215.217 131.96 208.376 130.408 201.709 128.27C184.727 122.875 171.076 113.136 161.727 97.7826C157.113 90.2055 154.151 81.9692 152.029 73.411C150.329 66.708 149.142 59.8862 148.476 53.0043C147.697 44.4666 146.939 35.9238 146.498 27.3605C146.031 18.4601 145.944 9.54425 145.693 0.628447C145.693 0.490495 145.693 0.347435 145.739 0C181.795 1.55835 213.17 14.3062 239.194 39.1785C266.935 65.6908 281.17 98.4264 283 136.864Z" fill="#1066F6"/>
</svg>
