<svg width="22" height="36" viewBox="0 0 22 36" fill="none" xmlns="http://www.w3.org/2000/svg">
<path id="Vector" d="M14.851 26.1733C16.767 25.7334 18.5896 24.9796 20.2524 23.9355C21.5024 23.0985 21.841 21.4109 21.0029 20.1564C20.2007 18.9548 18.5952 18.5914 17.3531 19.3295C13.5268 21.7202 8.6631 21.7202 4.83673 19.3295C3.57103 18.5273 1.88905 18.9076 1.08687 20.1721C1.08687 20.1778 1.08687 20.1778 1.08687 20.1778C0.2847 21.4502 0.664973 23.1311 1.93743 23.9276L1.94193 23.9333C3.60141 24.9773 5.42402 25.7323 7.33326 26.1665L2.13544 31.3632C1.0745 32.4073 1.05875 34.105 2.09494 35.1671L2.14107 35.2132C2.65747 35.7454 3.35502 36.0098 4.05256 36.0098C4.7501 36.0098 5.44652 35.7454 5.9618 35.2132L11.0955 30.1088L16.1988 35.22C17.2834 36.2562 19.0059 36.2325 20.0499 35.1491C21.0681 34.0949 21.0681 32.423 20.0499 31.3689L14.851 26.1733ZM11.0944 18.5914C16.2281 18.5858 20.3818 14.4298 20.3875 9.30285C20.3875 4.18153 16.2157 0.00976562 11.0944 0.00976562C5.97305 0.00976562 1.80129 4.18153 1.80129 9.30285C1.80692 14.4365 5.96743 18.5914 11.0944 18.5971V18.5914ZM11.0944 5.45961C13.2151 5.45961 14.9376 7.18209 14.9376 9.30285C14.9376 11.4304 13.2151 13.1472 11.0944 13.154C8.97362 13.1483 7.25114 11.4304 7.24551 9.30285C7.25114 7.18209 8.97362 5.45961 11.0944 5.45398V5.45961Z" fill="#1066F6"/>
</svg>
