<svg width="37" height="36" viewBox="0 0 37 36" fill="none" xmlns="http://www.w3.org/2000/svg">
<path id="Vector" fill-rule="evenodd" clip-rule="evenodd" d="M36.6666 18.0098C36.6666 27.9508 28.6077 36.0098 18.6666 36.0098C8.7255 36.0098 0.666626 27.9508 0.666626 18.0098C0.666626 8.06863 8.7255 0.00976562 18.6666 0.00976562C28.6077 0.00976562 36.6666 8.06863 36.6666 18.0098ZM19.3116 13.2982C17.5609 14.0264 14.0618 15.5335 8.81445 17.8197C7.96235 18.1586 7.51599 18.4902 7.47536 18.8142C7.40669 19.3621 8.09269 19.5777 9.02682 19.8715C9.1539 19.9115 9.28555 19.9529 9.42051 19.9966C10.3396 20.2954 11.5759 20.645 12.2185 20.6588C12.8015 20.6714 13.4522 20.4311 14.1706 19.9377C19.0734 16.6283 21.6042 14.9555 21.763 14.9193C21.8751 14.894 22.0305 14.8619 22.1358 14.9555C22.2411 15.0491 22.2306 15.2262 22.2195 15.2738C22.1516 15.5636 19.4588 18.067 18.0652 19.3625C17.6309 19.7664 17.3227 20.0528 17.2597 20.1183C17.1186 20.2648 16.9748 20.4034 16.8366 20.5366C15.9828 21.3597 15.3424 21.977 16.872 22.985C17.6071 23.4693 18.1952 23.8698 18.782 24.2694C19.4228 24.7059 20.062 25.1412 20.8891 25.6833C21.0997 25.8214 21.3009 25.9649 21.4969 26.1045C22.2427 26.6363 22.9126 27.114 23.7405 27.0377C24.2214 26.9936 24.7182 26.5412 24.9706 25.1923C25.5669 22.0045 26.7391 15.0974 27.01 12.2512C27.0337 12.0019 27.0039 11.6827 26.9799 11.5426C26.9558 11.4025 26.9058 11.2029 26.7236 11.0552C26.508 10.8802 26.1751 10.8433 26.0261 10.8458C25.3491 10.8578 24.3103 11.219 19.3116 13.2982Z" fill="#1066F6"/>
</svg>
