<svg width="37" height="36" viewBox="0 0 37 36" fill="none" xmlns="http://www.w3.org/2000/svg">
<path id="Vector" fill-rule="evenodd" clip-rule="evenodd" d="M3.18663 2.52977C0.666626 5.07376 0.666626 9.14176 0.666626 17.2898V18.7298C0.666626 26.8658 0.666626 30.9338 3.18663 33.4898C5.73062 36.0098 9.79862 36.0098 17.9466 36.0098H19.3866C27.5226 36.0098 31.5906 36.0098 34.1466 33.4898C36.6666 30.9458 36.6666 26.8778 36.6666 18.7298V17.2898C36.6666 9.15377 36.6666 5.08577 34.1466 2.52977C31.6027 0.00976584 27.5347 0.00976562 19.3866 0.00976562H17.9466C9.81063 0.00976562 5.74263 0.00976584 3.18663 2.52977ZM6.73862 10.9658C6.93063 20.3258 11.6106 25.9418 19.8186 25.9418H20.2987V20.5897C23.3106 20.8898 25.5907 23.0978 26.5026 25.9418H30.7626C30.3258 24.3258 29.551 22.8206 28.4899 21.5257C27.4288 20.231 26.1053 19.1758 24.6066 18.4297C25.9496 17.612 27.1095 16.5258 28.0138 15.2396C28.9182 13.9533 29.5476 12.4943 29.8626 10.9538H25.9986C25.1587 13.9298 22.6626 16.6297 20.2987 16.8817V10.9658H16.4226V21.3338C14.0226 20.7337 10.9986 17.8298 10.8666 10.9658H6.73862Z" fill="#1066F6"/>
</svg>
