<svg width="282" height="282" viewBox="0 0 282 282" fill="none" xmlns="http://www.w3.org/2000/svg">
<path d="M132.858 128.594L0 114.121C0.426611 111.722 0.756523 109.442 1.28552 107.208C1.42392 106.93 1.62753 106.689 1.87905 106.506C2.13058 106.322 2.4226 106.203 2.73031 106.157C15.6481 105.065 28.5773 104.059 41.5007 102.99C55.6699 101.813 69.8334 100.568 84.0026 99.3916C96.7327 98.3286 109.474 97.328 122.216 96.2934C124.491 96.1058 126.766 95.8955 129.087 95.6908L129.212 95.2076L36.8308 42.6288C38.2244 41.0428 39.5099 39.4624 40.949 38.0469C41.2903 37.7058 42.2345 37.6944 42.7863 37.8763C55.6794 42.1286 68.5612 46.4111 81.4315 50.724L143.432 71.3485C144.001 71.5361 144.57 71.6725 145.708 71.9909C128.006 49.7803 110.669 28.0132 93.115 5.98457C94.9409 5.41609 96.5563 4.84761 98.2343 4.52926C98.7576 4.42693 99.5028 4.89308 99.9977 5.29102C116.736 18.6389 133.469 32.0039 150.196 45.386L167.26 59.0295C165.093 39.0929 162.977 19.6963 160.838 0.0553096C162.3 0.0553096 163.506 -0.103865 164.638 0.117843C164.958 0.244868 165.25 0.435188 165.495 0.677424C165.741 0.919659 165.935 1.20884 166.066 1.52768C171.864 14.4132 177.633 27.3177 183.375 40.2412C186.203 46.5855 189.025 52.9316 191.839 59.2796C192.06 59.7685 192.362 60.2233 192.737 60.8998L216.775 20.2875C217.105 20.3387 217.247 20.2875 217.344 20.3785C221.57 22.8969 220.916 21.2937 220.467 26.1543C219.454 37.1885 218.345 48.2113 217.259 59.2398C216.878 63.0998 216.451 66.9541 216.053 70.8141C215.985 71.4224 215.962 72.042 215.888 73.0141L226.053 68.1536C235.313 63.7251 244.59 59.3365 253.8 54.8171C255.284 54.0894 256.171 54.1974 257.087 55.4708C257.554 56.1302 258.134 56.7044 258.708 57.3638L231.695 93.9001C235.836 94.6334 239.659 95.3213 243.521 95.9921C254.329 97.8681 265.102 99.7668 275.909 101.58C277.616 101.865 278.645 102.405 278.753 104.281C278.874 105.338 279.074 106.385 279.351 107.413L235.814 117.884C237.196 118.947 238.282 119.829 239.403 120.653C253.054 130.715 266.727 140.758 280.42 150.782C281.717 151.726 282.246 152.653 281.893 154.193C281.66 155.211 281.609 156.274 281.438 157.604L230.535 138.799L230.239 139.111C231.553 141.55 232.85 143.995 234.175 146.428C244.664 165.707 255.178 184.982 265.716 204.254C266.66 205.959 266.854 207.221 265.546 208.705C264.911 209.55 264.341 210.441 263.839 211.371L215.934 157.155L215.587 157.337C216.307 162.783 217.028 168.227 217.748 173.669C219.204 184.523 220.662 195.376 222.122 206.226C223.73 218.13 225.346 230.034 226.969 241.938C227.361 244.854 227.771 247.771 228.055 250.693C228.06 251.009 228.001 251.323 227.881 251.616C227.762 251.909 227.585 252.175 227.361 252.398C226.007 253.586 224.517 254.632 222.85 255.917L191.958 162.743C191.645 163.195 191.36 163.666 191.105 164.153C174.753 202.594 158.417 241.046 142.096 279.509C141.339 281.3 140.492 282.209 138.438 281.959C136.675 281.842 134.907 281.829 133.143 281.919C141.885 239.636 150.594 197.557 159.399 154.989L26.8196 227.044L22.1781 220.745L133.034 129.083L132.858 128.594Z" fill="#1066F6"/>
</svg>
