<svg width="37" height="26" viewBox="0 0 37 26" fill="none" xmlns="http://www.w3.org/2000/svg">
<path id="Vector" fill-rule="evenodd" clip-rule="evenodd" d="M32.5278 1.16189C34.0777 1.57677 35.2958 2.79475 35.7107 4.34465C36.4604 7.15103 36.4634 13.0098 36.4634 13.0098C36.4634 13.0098 36.4634 18.8685 35.7107 21.6749C35.2958 23.2248 34.0777 24.4428 32.5278 24.8576C29.7216 25.6103 18.4634 25.6103 18.4634 25.6103C18.4634 25.6103 7.20523 25.6103 4.39883 24.8576C2.84895 24.4428 1.63097 23.2248 1.21609 21.6749C0.463379 18.8685 0.463379 13.0098 0.463379 13.0098C0.463379 13.0098 0.463379 7.15103 1.21609 4.34465C1.63097 2.79475 2.84895 1.57677 4.39883 1.16189C7.20523 0.40918 18.4634 0.40918 18.4634 0.40918C18.4634 0.40918 29.7216 0.40918 32.5278 1.16189ZM24.2126 13.0103L14.8599 18.4097V7.61083L24.2126 13.0103Z" fill="#1066F6"/>
</svg>
