<svg width="147" height="35" viewBox="0 0 147 35" fill="none" xmlns="http://www.w3.org/2000/svg">
<path d="M1.11924 28.5009C0.759713 29.3266 1.36478 30.25 2.2653 30.25H2.38286C2.88406 30.25 3.3368 29.9506 3.53305 29.4894L5.85211 24.0397C5.96985 23.763 6.2415 23.5833 6.54222 23.5833H18.6272C18.9267 23.5833 19.1975 23.7615 19.316 24.0366L21.6676 29.4946C21.8651 29.953 22.3164 30.25 22.8156 30.25H22.9029C23.8028 30.25 24.4078 29.3278 24.0496 28.5023L14.0666 5.50231C13.8683 5.04554 13.4179 4.75 12.9199 4.75H12.2809C11.7835 4.75 11.3334 5.0449 11.1348 5.50094L1.11924 28.5009ZM12.5831 8.25048L17.6479 20.1604C17.8583 20.6551 17.4952 21.2039 16.9577 21.2039H8.20851C7.67097 21.2039 7.30796 20.6551 7.51832 20.1604L12.5831 8.25048ZM25.9066 28.9349C25.6334 29.5542 26.087 30.25 26.7639 30.25C27.1389 30.25 27.4778 30.0264 27.6253 29.6816L28.5527 27.5135C28.6708 27.2375 28.9421 27.0585 29.2423 27.0585H34.433C34.7319 27.0585 35.0023 27.236 35.1211 27.5103L36.0635 29.685C36.2121 30.028 36.5503 30.25 36.9241 30.25C37.6018 30.25 38.0558 29.5535 37.7823 28.9335L32.9446 17.9669C32.7524 17.5312 32.321 17.25 31.8448 17.25C31.3686 17.25 30.9372 17.5312 30.745 17.9669L25.9066 28.9349ZM29.9356 24.2918L31.8448 19.7996L33.754 24.2917C33.9642 24.7864 33.6012 25.3351 33.0637 25.3351H30.6259C30.0884 25.3351 29.7254 24.7864 29.9356 24.2918Z" fill="#252525" stroke="#252525" stroke-width="0.5"/>
<path d="M51.1976 13.5V3.63H55.1456C56.1629 3.63 56.9469 3.85867 57.4976 4.316C58.0576 4.764 58.3376 5.394 58.3376 6.206C58.3376 6.74733 58.1976 7.20933 57.9176 7.592C57.6376 7.97467 57.2502 8.25467 56.7556 8.432C57.3249 8.58133 57.7682 8.85667 58.0856 9.258C58.4122 9.65933 58.5756 10.168 58.5756 10.784C58.5756 11.6613 58.2909 12.3333 57.7216 12.8C57.1522 13.2667 56.3496 13.5 55.3136 13.5H51.1976ZM52.3176 8.04H54.9776C56.4616 8.04 57.2036 7.46133 57.2036 6.304C57.2036 5.13733 56.4616 4.554 54.9776 4.554H52.3176V8.04ZM52.3176 12.576H55.2016C56.6949 12.576 57.4416 11.974 57.4416 10.77C57.4416 9.566 56.6949 8.964 55.2016 8.964H52.3176V12.576ZM63.6405 13.626C62.5672 13.626 61.7178 13.3133 61.0925 12.688C60.4672 12.0533 60.1545 11.1947 60.1545 10.112C60.1545 9.412 60.2945 8.796 60.5745 8.264C60.8545 7.72267 61.2372 7.30733 61.7225 7.018C62.2172 6.71933 62.7865 6.57 63.4305 6.57C64.3545 6.57 65.0778 6.86867 65.6005 7.466C66.1232 8.054 66.3845 8.866 66.3845 9.902V10.336H61.2605C61.2978 11.1107 61.5218 11.7033 61.9325 12.114C62.3432 12.5153 62.9125 12.716 63.6405 12.716C64.0512 12.716 64.4432 12.6553 64.8165 12.534C65.1898 12.4033 65.5445 12.1933 65.8805 11.904L66.2725 12.702C65.9645 12.9913 65.5725 13.22 65.0965 13.388C64.6205 13.5467 64.1352 13.626 63.6405 13.626ZM63.4585 7.41C62.8145 7.41 62.3058 7.61067 61.9325 8.012C61.5592 8.41333 61.3398 8.94067 61.2745 9.594H65.4045C65.3765 8.90333 65.1945 8.36667 64.8585 7.984C64.5318 7.60133 64.0652 7.41 63.4585 7.41ZM68.1624 16.02V6.696H69.2684V7.914C69.4737 7.494 69.777 7.16733 70.1784 6.934C70.589 6.69133 71.065 6.57 71.6064 6.57C72.213 6.57 72.7404 6.71467 73.1884 7.004C73.6457 7.284 73.9957 7.69 74.2384 8.222C74.4904 8.74467 74.6164 9.37 74.6164 10.098C74.6164 10.8167 74.4904 11.442 74.2384 11.974C73.9957 12.4967 73.6457 12.9027 73.1884 13.192C72.7404 13.4813 72.213 13.626 71.6064 13.626C71.0837 13.626 70.617 13.5093 70.2064 13.276C69.7957 13.0427 69.4924 12.7207 69.2964 12.31V16.02H68.1624ZM71.3684 12.716C72.003 12.716 72.5117 12.492 72.8944 12.044C73.277 11.5867 73.4684 10.938 73.4684 10.098C73.4684 9.24867 73.277 8.6 72.8944 8.152C72.5117 7.704 72.003 7.48 71.3684 7.48C70.7337 7.48 70.225 7.704 69.8424 8.152C69.4597 8.6 69.2684 9.24867 69.2684 10.098C69.2684 10.938 69.4597 11.5867 69.8424 12.044C70.225 12.492 70.7337 12.716 71.3684 12.716ZM79.3452 13.626C78.6639 13.626 78.0759 13.4813 77.5812 13.192C77.0865 12.8933 76.7039 12.478 76.4332 11.946C76.1719 11.4047 76.0412 10.7747 76.0412 10.056C76.0412 8.97333 76.3352 8.124 76.9232 7.508C77.5112 6.88267 78.3185 6.57 79.3452 6.57C79.7652 6.57 80.1805 6.64467 80.5912 6.794C81.0019 6.94333 81.3425 7.15333 81.6132 7.424L81.2212 8.25C80.9505 7.98867 80.6519 7.79733 80.3252 7.676C80.0079 7.55467 79.7045 7.494 79.4152 7.494C78.7059 7.494 78.1599 7.718 77.7772 8.166C77.3945 8.60467 77.2032 9.23933 77.2032 10.07C77.2032 10.882 77.3945 11.526 77.7772 12.002C78.1599 12.4687 78.7059 12.702 79.4152 12.702C79.7045 12.702 80.0079 12.6413 80.3252 12.52C80.6519 12.3987 80.9505 12.2027 81.2212 11.932L81.6132 12.758C81.3425 13.0287 80.9972 13.2433 80.5772 13.402C80.1665 13.5513 79.7559 13.626 79.3452 13.626ZM83.0644 13.5V6.696H84.1004V11.96L88.0344 6.696H89.0004V13.5H87.9644V8.236L84.0304 13.5H83.0644ZM90.6802 13.5L91.7302 11.68C92.0102 11.1853 92.3695 10.8633 92.8082 10.714C92.2295 10.63 91.7815 10.42 91.4642 10.084C91.1468 9.73867 90.9882 9.29067 90.9882 8.74C90.9882 8.11467 91.1935 7.62 91.6042 7.256C92.0242 6.88267 92.6495 6.696 93.4802 6.696H96.5462V13.5H95.4682V10.91H94.4742C94.1008 10.91 93.7835 11.0033 93.5222 11.19C93.2702 11.3767 93.0648 11.6053 92.9062 11.876L91.9822 13.5H90.6802ZM93.6902 10.084H95.4682V7.494H93.6902C93.1395 7.494 92.7335 7.61067 92.4722 7.844C92.2108 8.068 92.0802 8.38067 92.0802 8.782C92.0802 9.19267 92.2108 9.51467 92.4722 9.748C92.7335 9.972 93.1395 10.084 93.6902 10.084ZM101.641 15.32V12.59H102.355C102.681 12.114 102.915 11.568 103.055 10.952C103.195 10.3267 103.265 9.57533 103.265 8.698V6.696H108.081V12.59H109.159V15.32H108.179V13.5H102.607V15.32H101.641ZM103.447 12.59H107.003V7.592H104.273V8.894C104.273 9.594 104.203 10.2707 104.063 10.924C103.923 11.5773 103.717 12.1327 103.447 12.59ZM110.29 13.654L109.87 12.758C110.29 12.5807 110.621 12.3333 110.864 12.016C111.107 11.6893 111.275 11.2413 111.368 10.672C111.471 10.1027 111.522 9.356 111.522 8.432V6.696H116.464V13.5H115.33V7.606H112.586V8.474C112.586 9.538 112.507 10.4153 112.348 11.106C112.199 11.7967 111.956 12.3427 111.62 12.744C111.284 13.1453 110.841 13.4487 110.29 13.654ZM118.147 13.5L119.197 11.68C119.477 11.1853 119.836 10.8633 120.275 10.714C119.696 10.63 119.248 10.42 118.931 10.084C118.614 9.73867 118.455 9.29067 118.455 8.74C118.455 8.11467 118.66 7.62 119.071 7.256C119.491 6.88267 120.116 6.696 120.947 6.696H124.013V13.5H122.935V10.91H121.941C121.568 10.91 121.25 11.0033 120.989 11.19C120.737 11.3767 120.532 11.6053 120.373 11.876L119.449 13.5H118.147ZM121.157 10.084H122.935V7.494H121.157C120.606 7.494 120.2 7.61067 119.939 7.844C119.678 8.068 119.547 8.38067 119.547 8.782C119.547 9.19267 119.678 9.51467 119.939 9.748C120.2 9.972 120.606 10.084 121.157 10.084ZM53.9976 30.626C53.3162 30.626 52.7282 30.4813 52.2336 30.192C51.7389 29.8933 51.3562 29.478 51.0856 28.946C50.8242 28.4047 50.6936 27.7747 50.6936 27.056C50.6936 25.9733 50.9876 25.124 51.5756 24.508C52.1636 23.8827 52.9709 23.57 53.9976 23.57C54.4176 23.57 54.8329 23.6447 55.2436 23.794C55.6542 23.9433 55.9949 24.1533 56.2656 24.424L55.8736 25.25C55.6029 24.9887 55.3042 24.7973 54.9776 24.676C54.6602 24.5547 54.3569 24.494 54.0676 24.494C53.3582 24.494 52.8122 24.718 52.4296 25.166C52.0469 25.6047 51.8556 26.2393 51.8556 27.07C51.8556 27.882 52.0469 28.526 52.4296 29.002C52.8122 29.4687 53.3582 29.702 54.0676 29.702C54.3569 29.702 54.6602 29.6413 54.9776 29.52C55.3042 29.3987 55.6029 29.2027 55.8736 28.932L56.2656 29.758C55.9949 30.0287 55.6496 30.2433 55.2296 30.402C54.8189 30.5513 54.4082 30.626 53.9976 30.626ZM57.3387 30.654L56.9187 29.758C57.3387 29.5807 57.6701 29.3333 57.9127 29.016C58.1554 28.6893 58.3234 28.2413 58.4167 27.672C58.5194 27.1027 58.5707 26.356 58.5707 25.432V23.696H63.5127V30.5H62.3787V24.606H59.6347V25.474C59.6347 26.538 59.5554 27.4153 59.3967 28.106C59.2474 28.7967 59.0047 29.3427 58.6687 29.744C58.3327 30.1453 57.8894 30.4487 57.3387 30.654ZM67.9118 30.626C67.4451 30.626 67.0251 30.5373 66.6518 30.36C66.2878 30.1733 65.9985 29.9213 65.7838 29.604C65.5691 29.2867 65.4618 28.932 65.4618 28.54C65.4618 28.0453 65.5878 27.6533 65.8398 27.364C66.1011 27.0747 66.5258 26.8693 67.1138 26.748C67.7111 26.6173 68.5231 26.552 69.5498 26.552H69.9978V26.118C69.9978 25.5393 69.8765 25.124 69.6338 24.872C69.4005 24.6107 69.0225 24.48 68.4998 24.48C68.0891 24.48 67.6925 24.5407 67.3098 24.662C66.9271 24.774 66.5351 24.9607 66.1338 25.222L65.7418 24.396C66.0965 24.144 66.5258 23.9433 67.0298 23.794C67.5431 23.6447 68.0331 23.57 68.4998 23.57C69.3771 23.57 70.0258 23.7847 70.4458 24.214C70.8751 24.6433 71.0898 25.3107 71.0898 26.216V30.5H70.0258V29.324C69.8485 29.7253 69.5731 30.0427 69.1998 30.276C68.8358 30.5093 68.4065 30.626 67.9118 30.626ZM68.0938 29.772C68.6538 29.772 69.1111 29.5807 69.4658 29.198C69.8205 28.806 69.9978 28.3113 69.9978 27.714V27.294H69.5638C68.8078 27.294 68.2105 27.3313 67.7718 27.406C67.3425 27.4713 67.0391 27.5927 66.8618 27.77C66.6938 27.938 66.6098 28.1713 66.6098 28.47C66.6098 28.8527 66.7405 29.1653 67.0018 29.408C67.2725 29.6507 67.6365 29.772 68.0938 29.772ZM76.1727 30.626C75.1647 30.626 74.3667 30.2947 73.7787 29.632C73.1907 28.9693 72.8967 28.008 72.8967 26.748V25.698C72.8967 24.3447 73.1673 23.318 73.7087 22.618C74.25 21.9087 75.0713 21.4047 76.1727 21.106L78.5947 20.42L78.9727 21.358L76.2567 22.086C75.5007 22.2913 74.9313 22.66 74.5487 23.192C74.1753 23.7147 73.9887 24.3587 73.9887 25.124V25.152C74.2033 24.6947 74.5207 24.3353 74.9407 24.074C75.3607 23.8033 75.8553 23.668 76.4247 23.668C77.0127 23.668 77.5307 23.808 77.9787 24.088C78.4267 24.368 78.772 24.7693 79.0147 25.292C79.2667 25.8053 79.3927 26.412 79.3927 27.112C79.3927 27.8213 79.2573 28.442 78.9867 28.974C78.7253 29.4967 78.352 29.9027 77.8667 30.192C77.3907 30.4813 76.826 30.626 76.1727 30.626ZM76.1307 29.716C76.7933 29.716 77.3113 29.4967 77.6847 29.058C78.058 28.61 78.2447 27.9707 78.2447 27.14C78.2447 26.328 78.058 25.698 77.6847 25.25C77.3113 24.802 76.798 24.578 76.1447 24.578C75.4913 24.578 74.978 24.7973 74.6047 25.236C74.2313 25.6747 74.0447 26.2767 74.0447 27.042C74.0447 27.9193 74.2267 28.5867 74.5907 29.044C74.9547 29.492 75.468 29.716 76.1307 29.716ZM84.0744 30.626C83.4117 30.626 82.8377 30.4813 82.3524 30.192C81.867 29.9027 81.489 29.4967 81.2184 28.974C80.957 28.442 80.8264 27.8167 80.8264 27.098C80.8264 26.3793 80.957 25.7587 81.2184 25.236C81.489 24.704 81.867 24.2933 82.3524 24.004C82.8377 23.7147 83.4117 23.57 84.0744 23.57C84.7277 23.57 85.297 23.7147 85.7824 24.004C86.277 24.2933 86.655 24.704 86.9164 25.236C87.187 25.7587 87.3224 26.3793 87.3224 27.098C87.3224 27.8167 87.187 28.442 86.9164 28.974C86.655 29.4967 86.277 29.9027 85.7824 30.192C85.297 30.4813 84.7277 30.626 84.0744 30.626ZM84.0744 29.716C84.709 29.716 85.2177 29.492 85.6004 29.044C85.983 28.5867 86.1744 27.938 86.1744 27.098C86.1744 26.2487 85.983 25.6 85.6004 25.152C85.2177 24.704 84.709 24.48 84.0744 24.48C83.4304 24.48 82.917 24.704 82.5344 25.152C82.161 25.6 81.9744 26.2487 81.9744 27.098C81.9744 27.938 82.161 28.5867 82.5344 29.044C82.917 29.492 83.4304 29.716 84.0744 29.716ZM89.1621 30.5V23.696H92.4801C93.2827 23.696 93.8754 23.85 94.2581 24.158C94.6407 24.4567 94.8321 24.9 94.8321 25.488C94.8321 25.8427 94.7294 26.1507 94.5241 26.412C94.3281 26.6733 94.0574 26.8647 93.7121 26.986C94.1321 27.0887 94.4587 27.2847 94.6921 27.574C94.9347 27.8633 95.0561 28.2133 95.0561 28.624C95.0561 29.2027 94.8414 29.66 94.4121 29.996C93.9827 30.332 93.3761 30.5 92.5921 30.5H89.1621ZM90.2401 26.65H92.4241C92.8534 26.65 93.1847 26.5567 93.4181 26.37C93.6514 26.174 93.7681 25.8987 93.7681 25.544C93.7681 25.1987 93.6514 24.9327 93.4181 24.746C93.1847 24.5593 92.8534 24.466 92.4241 24.466H90.2401V26.65ZM90.2401 29.73H92.5501C93.0167 29.73 93.3714 29.632 93.6141 29.436C93.8567 29.24 93.9781 28.9507 93.9781 28.568C93.9781 28.1947 93.8567 27.91 93.6141 27.714C93.3714 27.518 93.0167 27.42 92.5501 27.42H90.2401V29.73ZM96.8183 30.5V23.696H97.8543V28.96L101.788 23.696H102.754V30.5H101.718V25.236L97.7843 30.5H96.8183ZM104.252 32.32V29.59H104.966C105.293 29.114 105.526 28.568 105.666 27.952C105.806 27.3267 105.876 26.5753 105.876 25.698V23.696H110.692V29.59H111.77V32.32H110.79V30.5H105.218V32.32H104.252ZM106.058 29.59H109.614V24.592H106.884V25.894C106.884 26.594 106.814 27.2707 106.674 27.924C106.534 28.5773 106.329 29.1327 106.058 29.59ZM112.719 30.5L113.769 28.68C114.049 28.1853 114.409 27.8633 114.847 27.714C114.269 27.63 113.821 27.42 113.503 27.084C113.186 26.7387 113.027 26.2907 113.027 25.74C113.027 25.1147 113.233 24.62 113.643 24.256C114.063 23.8827 114.689 23.696 115.519 23.696H118.585V30.5H117.507V27.91H116.513C116.14 27.91 115.823 28.0033 115.561 28.19C115.309 28.3767 115.104 28.6053 114.945 28.876L114.021 30.5H112.719ZM115.729 27.084H117.507V24.494H115.729C115.179 24.494 114.773 24.6107 114.511 24.844C114.25 25.068 114.119 25.3807 114.119 25.782C114.119 26.1927 114.25 26.5147 114.511 26.748C114.773 26.972 115.179 27.084 115.729 27.084ZM129.87 32.32V30.5H120.826V23.696H121.918V29.59H124.76V23.696H125.838V29.59H128.68V23.696H129.772V29.59H130.85V32.32H129.87ZM132.365 30.5V23.696H133.401V28.96L137.335 23.696H138.301V30.5H137.265V25.236L133.331 30.5H132.365ZM139.687 30.5L142.515 26.986L139.855 23.696H141.199L143.173 26.202L145.161 23.696H146.491L143.831 26.986L146.659 30.5H145.315L143.159 27.798L141.031 30.5H139.687Z" fill="#252525"/>
</svg>
