<svg width="466" height="282" viewBox="0 0 466 282" fill="none" xmlns="http://www.w3.org/2000/svg">
<path d="M225.654 0H239.916C240.399 0.265816 240.92 0.456167 241.461 0.564434C248.443 1.09915 255.456 1.36651 262.408 2.13889C292.173 5.43305 321.073 14.1949 347.654 27.9837C392.389 51.1131 430.29 85.5453 457.591 127.858C460.355 132.076 463.207 136.265 466 140.453V141.879C465.17 142.823 464.396 143.815 463.682 144.85C448.807 169.769 430.436 192.428 409.13 212.135C363.372 253.576 309.741 277.134 248.087 281.382C202.535 284.632 156.987 275.018 116.638 253.636C67.4037 227.999 29.4605 190.479 0.758007 143.246C0.26649 142.607 0 141.824 0 141.018C0 140.212 0.26649 139.428 0.758007 138.79C23.9167 99.6817 55.7945 66.4481 93.9075 41.6785C131.776 16.9186 175.583 2.74328 220.781 0.623815C222.474 0.534695 224.049 0.207947 225.654 0ZM363.996 141.018C363.449 139.501 362.824 138.014 362.124 136.562C350.923 115.573 336.325 96.5811 318.922 80.3566C295.062 57.4326 266.897 39.4609 236.053 27.4787C233.994 26.7657 231.754 26.7657 229.695 27.4787C194.144 41.3005 162.193 63.0063 136.248 90.9619C123.366 104.492 112.371 119.701 103.564 136.175C102.585 137.601 102.062 139.289 102.062 141.018C102.062 142.746 102.585 144.435 103.564 145.86C104.218 146.84 104.634 147.969 105.228 149.009C134.436 199.332 177.103 233.792 230.764 255.21C232.414 255.674 234.173 255.569 235.756 254.913C259.927 245.576 282.478 232.494 302.58 216.146C326.776 197.186 346.862 173.506 361.619 146.543C362.515 144.747 363.308 142.903 363.996 141.018Z" fill="#1066F6"/>
<path d="M232.517 206.402C219.575 206.372 206.933 202.502 196.193 195.282C185.452 188.061 177.098 177.816 172.187 165.844C167.277 153.871 166.032 140.711 168.609 128.031C171.187 115.35 177.472 103.72 186.667 94.6142C195.863 85.5083 207.555 79.3364 220.262 76.8806C232.969 74.4248 246.119 75.7957 258.046 80.8195C269.974 85.8433 280.141 94.2939 287.259 105.1C294.378 115.907 298.128 128.583 298.034 141.523C298.007 150.088 296.289 158.563 292.979 166.463C289.669 174.363 284.832 181.532 278.746 187.559C272.659 193.587 265.443 198.354 257.51 201.587C249.577 204.821 241.084 206.457 232.517 206.402ZM279.761 140.839C281.157 117.074 259.14 92.8928 232.933 93.9326V124.857C242.352 126.105 247.79 131.333 248.859 140.839H279.761Z" fill="#1066F6"/>
</svg>
